<svg viewBox="0 0 18 18" fill="none" xmlns="http://www.w3.org/2000/svg">
<path d="M16.2297 13.15C15.8416 14.012 15.6546 14.3973 15.1554 15.1581C14.4565 16.2212 13.4707 17.5487 12.2529 17.5572C11.1687 17.567 10.8888 16.8498 9.41647 16.8625C7.94553 16.8695 7.63897 17.5712 6.55334 17.56C5.33412 17.5487 4.40178 16.3534 3.70287 15.2917C1.74819 12.3147 1.54147 8.82437 2.74944 6.96812C3.60444 5.65187 4.95584 4.87844 6.22569 4.87844C7.51944 4.87844 8.33225 5.58859 9.401 5.58859C10.4388 5.58859 11.0702 4.87703 12.5665 4.87703C13.6971 4.87703 14.8924 5.49297 15.7474 6.55609C12.9518 8.08891 13.406 12.0812 16.2297 13.15ZM11.4302 3.68875C11.9744 2.98984 12.3879 2.00406 12.2374 1C11.3501 1.06047 10.3122 1.62719 9.70615 2.36125C9.15631 3.03062 8.70069 4.02344 8.87787 4.98391C9.84678 5.01484 10.8494 4.43687 11.4302 3.68875Z" fill="white"/>
</svg>
