<svg viewBox="0 0 18 18" fill="none" xmlns="http://www.w3.org/2000/svg">
<path d="M16.3536 7.53229H15.7495V7.50116H8.99951V10.5012H13.2381C12.6198 12.2475 10.9581 13.5012 8.99951 13.5012C6.51439 13.5012 4.49951 11.4863 4.49951 9.00116C4.49951 6.51604 6.51439 4.50116 8.99951 4.50116C10.1466 4.50116 11.1903 4.93391 11.9849 5.64078L14.1063 3.51941C12.7668 2.27103 10.975 1.50116 8.99951 1.50116C4.85764 1.50116 1.49951 4.85928 1.49951 9.00116C1.49951 13.143 4.85764 16.5012 8.99951 16.5012C13.1414 16.5012 16.4995 13.143 16.4995 9.00116C16.4995 8.49829 16.4478 8.00741 16.3536 7.53229Z" fill="#FFC107"/>
<path d="M2.36426 5.51028L4.82838 7.31741C5.49513 5.66666 7.10988 4.50116 8.99951 4.50116C10.1466 4.50116 11.1903 4.93391 11.9849 5.64078L14.1063 3.51941C12.7668 2.27103 10.975 1.50116 8.99951 1.50116C6.11876 1.50116 3.62051 3.12753 2.36426 5.51028Z" fill="#FF3D00"/>
<path d="M9.00061 16.4985C10.9379 16.4985 12.6981 15.7571 14.029 14.5515L11.7077 12.5872C10.9547 13.1576 10.0187 13.4985 9.00061 13.4985C7.04986 13.4985 5.39348 12.2546 4.76948 10.5187L2.32373 12.4031C3.56498 14.832 6.08573 16.4985 9.00061 16.4985Z" fill="#4CAF50"/>
<path d="M16.3541 7.52997H15.75V7.49884H9V10.4988H13.2386C12.9416 11.3377 12.402 12.0611 11.706 12.588L11.7071 12.5872L14.0284 14.5515C13.8641 14.7007 16.5 12.7488 16.5 8.99884C16.5 8.49597 16.4483 8.00509 16.3541 7.52997Z" fill="#1976D2"/>
</svg>
